<svg width="50" height="50" viewBox="0 0 145 145" fill="none" xmlns="http://www.w3.org/2000/svg">
<path d="M72.5005 144.998C112.541 144.998 145 112.539 145 72.499C145 32.4589 112.541 0 72.5005 0C32.4601 0 0.000976562 32.4589 0.000976562 72.499C0.000976562 112.539 32.4601 144.998 72.5005 144.998Z" fill="#8DC5D6"/>
<path d="M45.3049 75.1732C45.3049 86.9996 38.8157 87.3051 39.2774 95.1363C39.7912 103.809 46.5698 103.829 46.5698 109.791C46.5698 115.751 40.3361 122.435 45.8587 128.854C70.1407 128.854 72.5105 128.854 72.5105 128.854V56.5331L45.3049 75.1732Z" fill="#2E576D"/>
<path d="M99.6941 74.7816C99.6941 86.608 106.184 86.9135 105.722 94.7447C105.209 103.417 98.4301 103.437 98.4301 109.4C98.4301 115.36 104.663 122.043 99.1413 128.462C74.8582 128.462 72.4885 128.462 72.4885 128.462V56.1425L99.6941 74.7816Z" fill="#2E576D"/>
<path d="M72.5004 92.6935C88.8931 92.6935 102.182 79.3182 102.182 62.8189C102.182 46.3196 88.8931 32.9443 72.5004 32.9443C56.1078 32.9443 42.819 46.3196 42.819 62.8189C42.819 79.3182 56.1078 92.6935 72.5004 92.6935Z" fill="#2E576D"/>
<path d="M107.221 117.123C102.547 108.276 72.5005 102.724 72.5005 102.724C72.5005 102.724 42.4534 108.276 37.7801 117.123C34.3257 129.4 31.4362 144.999 31.4362 144.999H72.5005H113.565C113.565 144.999 111.613 128.273 107.221 117.123Z" fill="#F1C9A5"/>
<path d="M72.5005 102.724C72.5005 102.724 102.548 108.276 107.221 117.123C111.614 128.273 113.565 144.999 113.565 144.999H72.5005V102.724Z" fill="#E4B692"/>
<path d="M80.6803 84.7381H64.3207V112.117H80.6803V84.7381Z" fill="#F1C9A5"/>
<path d="M80.6803 84.7381H72.5005V112.117H80.6803V84.7381Z" fill="#E4B692"/>
<path opacity="0.1" d="M64.3207 97.4249C65.792 101.648 71.7293 104.069 76.0901 104.069C77.6676 104.069 79.203 103.805 80.6803 103.321V84.7381H64.3207V97.4249Z" fill="#DDAC8C"/>
<path d="M93.5334 67.4621C93.5334 50.3615 84.1166 40.6373 72.5005 40.6373C60.8843 40.6373 51.4675 50.3615 51.4675 67.4621C51.4675 84.5628 60.8843 98.4274 72.5005 98.4274C84.1156 98.4274 93.5334 84.5638 93.5334 67.4621Z" fill="#F1C9A5"/>
<path d="M90.3314 79.3187C86.5184 78.894 83.9444 74.5282 84.5904 69.5715C85.2284 64.6107 88.839 60.928 92.654 61.3497C96.465 61.7723 99.035 66.1361 98.392 71.0968C97.752 76.0576 94.1444 79.7373 90.3314 79.3187Z" fill="#E4B692"/>
<path d="M46.7581 71.0968C46.1141 66.1361 48.6852 61.7713 52.4941 61.3497C56.3101 60.928 59.9217 64.6107 60.5617 69.5715C61.2048 74.5282 58.6287 78.895 54.8188 79.3187C51.0048 79.7373 47.3971 76.0576 46.7581 71.0968Z" fill="#F1C9A5"/>
<path d="M93.5334 67.4621C93.5334 50.3615 84.1167 40.6373 72.5005 40.6373V98.4274C84.1157 98.4274 93.5334 84.5638 93.5334 67.4621Z" fill="#E4B692"/>
<path d="M95.2691 65.5321C95.2691 65.481 95.2721 65.4319 95.2721 65.3819C95.2721 52.1162 86.291 38.1174 73.7204 38.1174C61.1497 38.1174 49.7518 52.1152 49.7518 65.3809C49.7518 65.4319 49.7548 65.481 49.7548 65.5311H95.2691V65.5321Z" fill="#2E576D"/>
<path d="M113.565 144.999C113.565 144.999 111.614 128.273 107.221 117.123C104.658 112.27 94.4668 108.413 85.7812 105.916L72.4694 116.364L58.6227 106.088C50.0743 108.589 40.284 112.382 37.7801 117.124C34.3257 129.401 31.4362 145 31.4362 145H72.5005H113.565V144.999Z" fill="#FA582A"/>
</svg>
