<svg xmlns="http://www.w3.org/2000/svg" xmlns:xlink="http://www.w3.org/1999/xlink" version="1.1" width="256" height="256" viewBox="0 0 256 256" xml:space="preserve">

<defs>
</defs>
<g style="stroke: none; stroke-width: 0; stroke-dasharray: none; stroke-linecap: butt; stroke-linejoin: miter; stroke-miterlimit: 10; fill: none; fill-rule: nonzero; opacity: 1;" transform="translate(1.4065934065934016 1.4065934065934016) scale(2.81 2.81)" >
	<path d="M 63.712 88.015 H 26.282 c -1.868 0 -3.382 -1.514 -3.382 -3.382 V 5.374 c 0 -1.868 1.514 -3.382 3.382 -3.382 h 37.429 c 1.868 0 3.382 1.514 3.382 3.382 v 79.258 C 67.094 86.5 65.58 88.015 63.712 88.015 z" style="stroke: none; stroke-width: 1; stroke-dasharray: none; stroke-linecap: butt; stroke-linejoin: miter; stroke-miterlimit: 10; fill: rgb(152,192,229); fill-rule: nonzero; opacity: 1;" transform=" matrix(1 0 0 1 0 0) " stroke-linecap="round" />
	<rect x="36.87" y="2.4" rx="0" ry="0" width="16.18" height="3.14" style="stroke: none; stroke-width: 1; stroke-dasharray: none; stroke-linecap: butt; stroke-linejoin: miter; stroke-miterlimit: 10; fill: rgb(236,240,241); fill-rule: nonzero; opacity: 1;" transform=" matrix(1 0 0 1 0 0) "/>
	<path d="M 63.063 0 H 26.937 c -2.816 0 -5.098 2.283 -5.098 5.098 v 79.803 c 0 2.816 2.283 5.098 5.098 5.098 h 36.126 c 2.816 0 5.098 -2.283 5.098 -5.098 V 5.098 C 68.161 2.283 65.879 0 63.063 0 z M 65.161 84.902 c 0 1.157 -0.941 2.098 -2.098 2.098 H 26.937 c -1.157 0 -2.098 -0.941 -2.098 -2.098 V 5.098 C 24.839 3.941 25.78 3 26.937 3 h 5.321 c 0.379 2.345 2.052 4.126 4.044 4.126 h 17.396 c 1.992 0 3.664 -1.781 4.044 -4.126 h 5.321 c 1.157 0 2.098 0.941 2.098 2.098 V 84.902 z M 51.604 4 c 0 0.384 -0.312 0.696 -0.696 0.696 S 50.212 4.384 50.212 4 s 0.312 -0.696 0.696 -0.696 S 51.604 3.616 51.604 4 z M 48.362 4 c 0 0.276 -0.224 0.5 -0.5 0.5 h -9.466 c -0.276 0 -0.5 -0.224 -0.5 -0.5 s 0.224 -0.5 0.5 -0.5 h 9.466 C 48.139 3.5 48.362 3.724 48.362 4 z" style="stroke: none; stroke-width: 1; stroke-dasharray: none; stroke-linecap: butt; stroke-linejoin: miter; stroke-miterlimit: 10; fill: rgb(49,68,88); fill-rule: nonzero; opacity: 1;" transform=" matrix(1 0 0 1 0 0) " stroke-linecap="round" />
</g>
</svg>