<svg width="50" height="50" viewBox="0 0 106 141" fill="none" xmlns="http://www.w3.org/2000/svg">
<path d="M89.4159 99.4661C81.2444 96.5621 66.8901 94.3648 66.8901 64.0945H54.0946H51.905H39.1095C39.1095 94.3648 24.7552 96.5621 16.5837 99.4661C16.5837 120.055 46.715 120.688 51.905 122.607V123.275C51.905 123.275 52.3086 123.194 52.9998 122.98C53.691 123.194 54.0946 123.275 54.0946 123.275V122.607C59.2846 120.689 89.4159 120.055 89.4159 99.4661Z" fill="#F3D8B6"/>
<path d="M66.8901 64.0949H54.0946H53.0366V122.991C53.7046 123.196 54.0946 123.275 54.0946 123.275V122.607C59.2846 120.688 89.4159 120.055 89.4159 99.4661C81.2444 96.5625 66.8901 94.3652 66.8901 64.0949Z" fill="#EEC8A2"/>
<path d="M53.0007 73.7281C40.9826 73.7281 31.8095 63.679 27.6991 56.1432C23.5886 48.6073 20.7441 21.6109 29.5989 9.67841C38.2699 -2.00679 53.0007 3.66346 53.0007 3.66346C53.0007 3.66346 67.7305 -2.00679 76.402 9.67841C85.2559 21.6109 82.4105 48.6073 78.2996 56.1432C74.1883 63.679 65.0165 73.7281 53.0007 73.7281Z" fill="#F3DBC4"/>
<path d="M76.4024 9.67834C67.9722 -1.68086 53.8197 3.35956 53.0366 3.64992V73.7272C65.0344 73.7072 74.1926 63.6711 78.3001 56.1431C82.4105 48.6073 85.2564 21.6113 76.4024 9.67834Z" fill="#EDCEAE"/>
<path d="M84.3276 45.8455C85.7998 41.9873 85.1518 38.1669 82.8802 37.3123C80.6086 36.4576 77.5737 38.8925 76.1015 42.7506C74.6293 46.6088 75.2774 50.4293 77.5489 51.2839C79.8205 52.1385 82.8555 49.7036 84.3276 45.8455Z" fill="#EDCEAE"/>
<path d="M21.669 45.8443C23.1412 49.7025 26.1761 52.1373 28.4477 51.2827C30.7193 50.4281 31.3673 46.6076 29.8951 42.7495C28.4229 38.8913 25.388 36.4565 23.1164 37.3111C20.8449 38.1657 20.1968 41.9862 21.669 45.8443Z" fill="#F3DBC4"/>
<path d="M71.3827 39.9204H59.2618C58.7431 39.9204 58.2305 40.026 57.7599 40.2303L52.9998 41.9138L48.2397 40.2303C47.7691 40.026 47.2565 39.9204 46.7377 39.9204H34.6173C32.2057 39.9204 31.3731 44.0385 31.3731 44.0385C31.3731 49.4857 35.3965 53.902 41.7723 53.902C45.6604 53.902 49.3931 49.7987 51.687 46.4774H54.3135C56.6073 49.7987 60.3404 53.902 64.2281 53.902C70.6039 53.902 74.6273 49.4857 74.6273 44.0385C74.6269 44.0385 73.7947 39.9204 71.3827 39.9204Z" fill="#A7B8D4"/>
<path d="M71.3827 39.9204H59.2618C58.7431 39.9204 58.2305 40.026 57.7599 40.2303L53.0361 41.9008V46.4774H54.313C56.6069 49.7987 60.34 53.902 64.2277 53.902C70.6035 53.902 74.6269 49.4857 74.6269 44.0385C74.6269 44.0385 73.7947 39.9204 71.3827 39.9204Z" fill="#8AA4C2"/>
<path d="M77.6859 7.8727C76.7404 7.88096 66.5368 2.16941 59.5709 0.763691C51.356 -0.894135 51.3512 0.533752 48.1806 1.42265C40.811 -3.94507 22.5704 12.1377 22.5704 15.4603C22.5704 31.5917 21.3587 33.15 23.3211 38.7785C25.2835 44.407 27.0271 48.9528 27.0271 48.9528C27.0271 48.9528 28.3351 53.2208 28.3351 44.3031C28.3351 20.0299 29.563 42.7496 72.1142 24.075C80.5002 20.3946 76.1174 32.751 76.9894 41.6265C77.8614 50.502 78.2974 48.9524 78.2974 48.9524C78.2974 48.9524 80.0414 44.4066 82.0034 38.7781C83.9659 33.15 86.1573 7.7988 77.6859 7.8727Z" fill="#A0756F"/>
<path d="M77.6859 7.87269C76.7404 7.88094 66.5368 2.1694 59.5709 0.76368C56.3692 0.117328 54.4172 -0.0587133 53.0361 0.0177884V30.6211C58.23 29.4236 64.5087 27.4128 72.1138 24.075C80.4998 20.3946 76.117 32.7509 76.989 41.6264C77.861 50.5019 78.297 48.9524 78.297 48.9524C78.297 48.9524 80.041 44.4066 82.003 38.7781C83.9659 33.15 86.1573 7.79879 77.6859 7.87269Z" fill="#8C6762"/>
<path d="M77.9753 97.3327H28.0243V140.941H77.9753V97.3327Z" fill="#B7CAE9"/>
<path d="M77.9757 97.3327H53.0366V140.941H77.9757V97.3327Z" fill="#96B3D4"/>
<path d="M18.0204 92.4936C20.6653 90.9109 26.6397 89.264 29.7714 88.4964C32.3773 87.8496 31.2974 94.9421 32.2596 104.041C33.2563 113.464 40.7016 141 40.7016 141H0.245918V123.317C0.245918 110.09 7.85273 98.5572 18.0204 92.4936Z" fill="#367992"/>
<path d="M35.8855 84.2927C35.8855 84.2927 21.6795 87.9878 18.5137 92.3888C15.3479 96.7894 13.4485 102.762 13.4485 102.762L25.7948 107.163L16.6515 116.006L28.9742 140.941H40.702C40.702 140.941 31.8564 109.447 31.6537 98.3468C31.5872 94.7099 35.8855 84.2927 35.8855 84.2927Z" fill="#358BA2"/>
<path d="M87.9792 92.4936C85.3343 90.9109 79.3599 89.264 76.2282 88.4964C73.6223 87.8496 74.7022 94.9421 73.74 104.041C72.7432 113.464 65.298 141 65.298 141H105.754V123.317C105.754 110.09 98.1473 98.5572 87.9792 92.4936Z" fill="#2F697E"/>
<path d="M70.1145 84.2927C70.1145 84.2927 84.3205 87.9878 87.4863 92.3888C90.6521 96.7894 92.5515 102.762 92.5515 102.762L80.2052 107.163L89.3485 116.006L77.0258 140.941H65.298C65.298 140.941 74.1436 109.447 74.3459 98.3468C74.4124 94.7099 70.1145 84.2927 70.1145 84.2927Z" fill="#367992"/>
<path d="M84.3276 45.8455C85.7998 41.9873 85.1518 38.1669 82.8802 37.3123C80.6086 36.4576 77.5737 38.8925 76.1015 42.7506C74.6293 46.6088 75.2774 50.4293 77.5489 51.2839C79.8205 52.1385 82.8555 49.7036 84.3276 45.8455Z" fill="#EDCEAE"/>
<path d="M21.669 45.8443C23.1412 49.7025 26.1761 52.1373 28.4477 51.2827C30.7193 50.4281 31.3673 46.6076 29.8951 42.7495C28.4229 38.8913 25.388 36.4565 23.1164 37.3111C20.8449 38.1657 20.1968 41.9862 21.669 45.8443Z" fill="#F3DBC4"/>
</svg>
