<svg width="50" height="50" viewBox="0 0 102 140" fill="none" xmlns="http://www.w3.org/2000/svg">
<path d="M100.251 99.8041C91.0288 96.9792 74.8286 94.8419 74.8286 65.3965H60.3878H57.9166H43.4757C43.4757 94.8419 27.2756 96.9792 18.0533 99.8041C18.0533 119.832 52.0592 120.448 57.9166 122.315V122.965C57.9166 122.965 58.3721 122.885 59.1522 122.677C59.9323 122.885 60.3878 122.965 60.3878 122.965V122.315C66.2451 120.448 100.251 119.832 100.251 99.8041Z" fill="#F3D8B6"/>
<path d="M74.8291 65.3965H60.3883H59.2762V122.709C59.9782 122.892 60.3883 122.964 60.3883 122.964V122.314C66.2452 120.448 100.252 119.832 100.252 99.8037C91.0293 96.9792 74.8291 94.8419 74.8291 65.3965Z" fill="#EEC8A2"/>
<path d="M59.2772 74.767C45.7137 74.767 35.3611 64.9918 30.722 57.6613C26.083 50.3308 22.8727 24.0702 32.8662 12.4628C42.6522 1.0961 59.2772 6.61182 59.2772 6.61182C59.2772 6.61182 75.9012 1.0961 85.6877 12.4628C95.6802 24.0702 92.4689 50.3308 87.8294 57.6613C83.1893 64.9918 72.8377 74.767 59.2772 74.767Z" fill="#F3DBC4"/>
<path d="M85.6878 12.4633C75.9008 1.09652 59.2772 6.61225 59.2772 6.61225H59.2762V74.7675H59.2772C72.8382 74.7675 83.1894 64.9922 87.8299 57.6618C92.469 50.3313 95.6803 24.0706 85.6878 12.4633Z" fill="#EDCEAE"/>
<path d="M87.6614 10.7065C86.5948 10.7403 81.5936 -2.52917 68.2544 0.430589C59.0964 2.46268 57.9403 3.56751 54.362 4.43176C39.8322 0.620436 25.9352 10.5509 26.451 19.8597C27.32 35.5338 24.0905 35.2949 26.3053 40.77C28.5201 46.2451 30.4878 50.667 30.4878 50.667C30.4878 50.667 30.9799 52.1744 31.964 43.5408C32.9482 34.9071 29.6396 30.273 37.4662 30.273C63.3797 30.273 27.7345 38.8867 44.3591 38.8867C60.8556 38.8867 73.6079 27.3094 81.3727 26.4676C89.1371 25.6253 85.8908 34.9071 86.8749 43.5408C87.859 52.1744 88.3511 50.667 88.3511 50.667C88.3511 50.667 92.7579 46.5606 92.5336 40.77C92.2817 34.2357 95.6807 10.4519 87.6614 10.7065Z" fill="#E1A98C"/>
<path d="M87.6615 10.7069C86.5948 10.7407 81.5936 -2.52874 68.2545 0.431016C63.7236 1.43607 61.1526 2.21448 59.2762 2.84914V35.957C68.6497 32.4675 76.1438 27.0342 81.3728 26.4676C89.1377 25.6253 85.8908 34.9071 86.8749 43.5408C87.8591 52.1744 88.3511 50.667 88.3511 50.667C88.3511 50.667 92.758 46.5606 92.5337 40.77C92.2817 34.2357 95.6808 10.4519 87.6615 10.7069Z" fill="#D2987B"/>
<path d="M80.108 43.0672H66.4285C65.8431 43.0672 65.2645 43.1699 64.7334 43.3687L59.3612 45.0063L53.989 43.3687C53.4579 43.1699 52.8794 43.0672 52.2939 43.0672H38.6149C35.8932 43.0672 34.9536 47.073 34.9536 47.073C34.9536 52.3718 39.4943 56.6677 46.69 56.6677C51.0781 56.6677 55.2908 52.6763 57.8796 49.4455H60.8438C63.4326 52.6763 67.6458 56.6677 72.0334 56.6677C79.2291 56.6677 83.7699 52.3718 83.7699 47.073C83.7694 47.073 82.8297 43.0672 80.108 43.0672Z" fill="#A7B8D4"/>
<path d="M80.108 43.0672H66.4285C65.843 43.0672 65.2645 43.1699 64.7334 43.3687L59.2787 44.9809V49.4455H60.8433C63.4321 52.6763 67.6453 56.6677 72.0329 56.6677C79.2286 56.6677 83.7694 52.3718 83.7694 47.073C83.7694 47.073 82.8297 43.0672 80.108 43.0672Z" fill="#8AA4C2"/>
<path d="M98.9389 92.8152C97.8515 92.2541 96.2632 91.7421 94.5148 91.2804C91.9008 90.4749 88.9578 89.825 86.7114 89.3502C85.7776 89.1502 82.1928 89.3071 79.2424 83.7757H39.9843C37.3521 89.3282 34.1477 89.1739 33.3227 89.3502C29.7883 90.0969 23.0456 91.2757 20.0606 92.8152C8.58497 98.714 0 109.932 0 122.799V140H118.552H119V122.799C119 109.932 110.415 98.714 98.9389 92.8152Z" fill="#682234"/>
<path d="M98.9389 92.8152C97.8515 92.2541 96.2631 91.7421 94.5147 91.2804C91.9008 90.4749 88.9577 89.825 86.7113 89.3502C85.7776 89.1502 82.1928 89.3071 79.2424 83.7757H59.0524V140H118.552H119V122.799C118.999 109.932 110.414 98.714 98.9389 92.8152Z" fill="#581A2B"/>
<path d="M92.218 43.4042C91.8598 49.6387 81.1391 55.803 77.5948 59.9201C69.2944 69.5617 59.2762 61.2963 59.2762 61.2963C59.2762 61.2963 49.4813 69.5617 41.1799 59.9201C37.6362 55.8039 26.9164 49.6408 26.5583 43.4071C25.9703 52.2285 32.3213 61.2811 34.6512 64.9622C38.5902 71.1857 47.8737 79.4853 59.3889 79.4853C70.902 79.4853 80.1851 71.1857 84.1246 64.9622C86.4545 61.2807 92.8059 52.2264 92.218 43.4042Z" fill="#E1A98C"/>
<path d="M92.218 43.4042C91.8598 49.6387 81.1395 55.803 77.5948 59.9201C69.2944 69.5617 59.2757 61.2963 59.2757 61.2963V79.4828C59.3132 79.4828 59.3508 79.4853 59.3883 79.4853C70.9015 79.4853 80.1846 71.1862 84.1241 64.9622C86.4544 61.2807 92.8059 52.2264 92.218 43.4042Z" fill="#D2987B"/>
<path d="M94.6321 47.6443C96.2935 43.8913 95.5622 40.175 92.9985 39.3437C90.4348 38.5123 87.0096 40.8808 85.3481 44.6338C83.6866 48.3868 84.418 52.1032 86.9817 52.9345C89.5454 53.7658 92.9706 51.3974 94.6321 47.6443Z" fill="#EDCEAE"/>
<path d="M23.9165 47.6438C25.578 51.3968 29.0032 53.7653 31.5669 52.9339C34.1306 52.1026 34.862 48.3863 33.2005 44.6333C31.539 40.8802 28.1138 38.5118 25.5501 39.3431C22.9864 40.1744 22.2551 43.8907 23.9165 47.6438Z" fill="#F3DBC4"/>
</svg>
